<?xml version="1.0" standalone="no"?>
<!DOCTYPE svg PUBLIC "-//W3C//DTD SVG 20010904//EN"
 "http://www.w3.org/TR/2001/REC-SVG-20010904/DTD/svg10.dtd">
<svg version="1.0" xmlns="http://www.w3.org/2000/svg"
 width="128.000000pt" height="128.000000pt" viewBox="0 0 128.000000 128.000000"
 preserveAspectRatio="xMidYMid meet">

<g transform="translate(0.000000,128.000000) scale(0.100000,-0.100000)"
fill="#000000" stroke="none">
<path d="M0 640 l0 -640 640 0 640 0 0 640 0 640 -640 0 -640 0 0 -640z m717
564 c139 -67 193 -232 122 -373 -53 -106 -149 -159 -272 -149 -100 8 -177 60
-225 152 -21 41 -26 65 -26 121 1 84 17 128 74 188 88 97 208 119 327 61z
m293 -539 c39 -20 54 -49 40 -75 -13 -23 -37 -25 -64 -5 -13 10 -44 15 -95 15
-114 0 -111 7 -111 -235 0 -155 3 -205 14 -220 22 -30 133 -34 186 -6 22 11
46 18 54 15 45 -17 14 -80 -50 -102 -58 -20 -184 -10 -224 18 -56 40 -60 58
-60 292 0 236 5 259 65 298 39 26 199 29 245 5z m-388 -327 c2 -123 7 -231 12
-241 8 -16 -8 -17 -252 -17 l-259 0 -27 26 c-25 26 -26 30 -26 156 0 71 5 138
10 149 32 59 307 146 472 148 l67 1 3 -222z m524 110 c39 -37 64 -69 64 -82 0
-13 -25 -47 -64 -85 -48 -48 -69 -62 -87 -59 -33 4 -37 43 -8 74 l22 24 -99 0
c-115 0 -141 11 -130 53 l6 27 112 0 111 0 -21 23 c-24 25 -29 72 -9 80 28 12
42 4 103 -55z"/>
</g>
</svg>
